# xmcd
#
# Track frame offsets: 
#        150
#        16308
#        30256
#        45902
#        63915
#        81233
#        99609
#        117502
#        136001
#        152966
#
# Disc length: 2346 seconds
#
# Revision: 5
# Processed by: cddbd v1.5.2PL0 Copyright (c) Steve Scherf et al.
# Submitted via: ExactAudioCopy v1.0b4
#
DISCID=7209280a
DTITLE=Macdonald, Amy - This Is The Life - This Is The Life
DYEAR=2008
DGENRE=Blues
TTITLE0=This Is The Life (acoustic version)
TTITLE1=This Much Is True
TTITLE2=Somebody New
TTITLE3=Footboller's Wife (live from Glasgow Barrowlands)
TTITLE4=Fairy Tale Of New York (live from Glasgow Barrowlands)
TTITLE5=Mr. Brightside (live from Glasgow Barrowlands)
TTITLE6=Mr Rock and Roll (live from Glasgow Barrowlands)
TTITLE7=Rock Bottom
TTITLE8=The Road To Home
TTITLE9=Caledonia
EXTD=YEAR: 2008
EXTT0=
EXTT1=
EXTT2=
EXTT3=
EXTT4=
EXTT5=
EXTT6=
EXTT7=
EXTT8=
EXTT9=
PLAYORDER=
